<svg width="2793" height="600" viewBox="0 0 2793 600" fill="none" xmlns="http://www.w3.org/2000/svg">
<path d="M520 379.733L437.016 523.6L436.53 523.295C419.667 546.213 392.788 560 363.942 560H104L188.773 413.061L208 379.733H520ZM208 379.733H0L98 209.866L170 85.0664C186.088 57.1805 215.835 40 248.029 40C251.186 40 254.289 40.1573 257.333 40.46L257.4 40H404L208 379.733Z" fill="#FAFAFA"/>
<path d="M821.376 436V221.344C821.376 213.408 819.072 207.264 814.464 202.912C810.112 198.304 803.968 196 796.032 196H749.184V163.36H800.256C819.968 163.36 834.816 168.48 844.8 178.72C855.04 188.704 860.16 203.552 860.16 223.264V436H821.376ZM741.504 436V403.36H928.896V436H741.504ZM1051.63 436V221.344C1051.63 213.408 1049.32 207.264 1044.71 202.912C1040.36 198.304 1034.22 196 1026.28 196H979.434V163.36H1030.51C1050.22 163.36 1065.07 168.48 1075.05 178.72C1085.29 188.704 1090.41 203.552 1090.41 223.264V436H1051.63ZM971.754 436V403.36H1159.15V436H971.754ZM1268.05 440.608C1255.25 440.608 1243.73 438.304 1233.49 433.696C1223.25 429.088 1215.06 422.56 1208.92 414.112C1203.03 405.664 1200.08 395.808 1200.08 384.544C1200.08 367.136 1205.33 353.568 1215.83 343.84C1226.58 334.112 1242.71 327.2 1264.21 323.104L1330.26 309.28C1330.26 293.408 1326.8 281.504 1319.89 273.568C1312.98 265.632 1302.61 261.664 1288.79 261.664C1275.99 261.664 1266 264.608 1258.84 270.496C1251.67 276.384 1246.8 284.576 1244.24 295.072L1203.54 292.384C1207.38 272.928 1216.72 257.184 1231.57 245.152C1246.42 233.12 1265.49 227.104 1288.79 227.104C1314.9 227.104 1334.74 234.528 1348.31 249.376C1362.13 264.224 1369.04 284.704 1369.04 310.816V391.456C1369.04 396.064 1370.07 399.392 1372.12 401.44C1374.16 403.232 1377.11 404.128 1380.95 404.128H1392.47V436C1390.93 436.256 1388.37 436.512 1384.79 436.768C1381.46 437.024 1378.13 437.152 1374.8 437.152C1365.59 437.152 1357.78 435.616 1351.38 432.544C1344.98 429.472 1340.12 424.736 1336.79 418.336C1333.72 411.68 1331.92 403.36 1331.41 393.376H1337.56C1336.02 402.336 1332.05 410.4 1325.65 417.568C1319.25 424.736 1311.06 430.368 1301.08 434.464C1291.09 438.56 1280.08 440.608 1268.05 440.608ZM1273.81 408.736C1286.1 408.736 1296.47 406.56 1304.92 402.208C1313.36 397.856 1319.64 391.712 1323.73 383.776C1328.08 375.84 1330.26 366.496 1330.26 355.744V340L1273.43 351.52C1261.14 353.824 1252.56 357.408 1247.7 362.272C1242.84 367.136 1240.4 373.536 1240.4 381.472C1240.4 389.92 1243.35 396.576 1249.24 401.44C1255.12 406.304 1263.32 408.736 1273.81 408.736ZM1424.57 436V231.712H1458.37L1459.9 277.792L1455.68 276.64C1458.24 261.024 1463.23 248.864 1470.65 240.16C1478.33 231.456 1487.93 227.104 1499.45 227.104C1511.74 227.104 1520.96 231.456 1527.1 240.16C1533.5 248.864 1537.47 261.792 1539.01 278.944H1534.78C1537.09 262.56 1542.33 249.888 1550.53 240.928C1558.72 231.712 1568.96 227.104 1581.25 227.104C1597.37 227.104 1609.02 232.736 1616.19 244C1623.61 255.008 1627.33 273.056 1627.33 298.144V436H1589.69V304.672C1589.69 288.288 1587.9 276.896 1584.32 270.496C1580.99 264.096 1575.74 260.896 1568.57 260.896C1563.97 260.896 1559.74 262.432 1555.9 265.504C1552.32 268.576 1549.5 273.44 1547.45 280.096C1545.41 286.496 1544.38 294.944 1544.38 305.44V436H1507.52V304.672C1507.52 288.8 1505.85 277.536 1502.53 270.88C1499.45 264.224 1494.21 260.896 1486.78 260.896C1481.92 260.896 1477.69 262.432 1474.11 265.504C1470.53 268.576 1467.58 273.44 1465.28 280.096C1463.23 286.496 1462.21 294.944 1462.21 305.44V436H1424.57ZM1728.55 440.608C1715.75 440.608 1704.23 438.304 1693.99 433.696C1683.75 429.088 1675.56 422.56 1669.42 414.112C1663.53 405.664 1660.58 395.808 1660.58 384.544C1660.58 367.136 1665.83 353.568 1676.33 343.84C1687.08 334.112 1703.21 327.2 1724.71 323.104L1790.76 309.28C1790.76 293.408 1787.3 281.504 1780.39 273.568C1773.48 265.632 1763.11 261.664 1749.29 261.664C1736.49 261.664 1726.5 264.608 1719.34 270.496C1712.17 276.384 1707.3 284.576 1704.74 295.072L1664.04 292.384C1667.88 272.928 1677.22 257.184 1692.07 245.152C1706.92 233.12 1725.99 227.104 1749.29 227.104C1775.4 227.104 1795.24 234.528 1808.81 249.376C1822.63 264.224 1829.54 284.704 1829.54 310.816V391.456C1829.54 396.064 1830.57 399.392 1832.62 401.44C1834.66 403.232 1837.61 404.128 1841.45 404.128H1852.97V436C1851.43 436.256 1848.87 436.512 1845.29 436.768C1841.96 437.024 1838.63 437.152 1835.3 437.152C1826.09 437.152 1818.28 435.616 1811.88 432.544C1805.48 429.472 1800.62 424.736 1797.29 418.336C1794.22 411.68 1792.42 403.36 1791.91 393.376H1798.06C1796.52 402.336 1792.55 410.4 1786.15 417.568C1779.75 424.736 1771.56 430.368 1761.58 434.464C1751.59 438.56 1740.58 440.608 1728.55 440.608ZM1734.31 408.736C1746.6 408.736 1756.97 406.56 1765.42 402.208C1773.86 397.856 1780.14 391.712 1784.23 383.776C1788.58 375.84 1790.76 366.496 1790.76 355.744V340L1733.93 351.52C1721.64 353.824 1713.06 357.408 1708.2 362.272C1703.34 367.136 1700.9 373.536 1700.9 381.472C1700.9 389.92 1703.85 396.576 1709.74 401.44C1715.62 406.304 1723.82 408.736 1734.31 408.736Z" fill="#FAFAFA"/>
<path d="M1960.34 436V385.312H2012.56V436H1960.34ZM2221.31 440.608C2202.36 440.608 2185.6 436.256 2171 427.552C2156.67 418.592 2145.53 406.176 2137.6 390.304C2129.92 374.176 2126.08 355.36 2126.08 333.856C2126.08 312.352 2129.92 293.664 2137.6 277.792C2145.53 261.92 2156.67 249.504 2171 240.544C2185.6 231.584 2202.36 227.104 2221.31 227.104C2236.92 227.104 2250.88 230.048 2263.16 235.936C2275.45 241.568 2285.56 249.888 2293.5 260.896C2301.44 271.904 2306.68 285.088 2309.24 300.448L2269.69 303.136C2266.62 290.08 2260.86 280.096 2252.41 273.184C2243.96 266.272 2233.72 262.816 2221.69 262.816C2204.54 262.816 2190.97 269.216 2180.99 282.016C2171.26 294.56 2166.4 311.84 2166.4 333.856C2166.4 355.872 2171.26 373.28 2180.99 386.08C2190.97 398.624 2204.54 404.896 2221.69 404.896C2233.98 404.896 2244.48 401.312 2253.18 394.144C2262.14 386.72 2268.03 375.84 2270.84 361.504L2310.4 363.808C2307.84 379.424 2302.46 392.992 2294.27 404.512C2286.08 415.776 2275.71 424.608 2263.16 431.008C2250.88 437.408 2236.92 440.608 2221.31 440.608ZM2359.4 493.6V231.712H2396.26L2397.03 278.176L2392.42 275.872C2397.54 260 2405.86 247.968 2417.38 239.776C2429.16 231.328 2442.98 227.104 2458.85 227.104C2478.57 227.104 2494.69 232.096 2507.24 242.08C2519.78 251.808 2529.13 264.736 2535.27 280.864C2541.41 296.992 2544.49 314.656 2544.49 333.856C2544.49 353.056 2541.41 370.72 2535.27 386.848C2529.13 402.976 2519.78 416.032 2507.24 426.016C2494.69 435.744 2478.57 440.608 2458.85 440.608C2448.36 440.608 2438.63 438.944 2429.67 435.616C2420.71 432.032 2413.03 427.04 2406.63 420.64C2400.49 413.984 2396.01 406.048 2393.19 396.832L2398.18 391.456V493.6H2359.4ZM2451.56 404.896C2467.94 404.896 2480.74 398.752 2489.96 386.464C2499.17 374.176 2503.78 356.64 2503.78 333.856C2503.78 311.072 2499.17 293.536 2489.96 281.248C2480.74 268.96 2467.94 262.816 2451.56 262.816C2440.81 262.816 2431.46 265.504 2423.53 270.88C2415.59 276 2409.32 283.808 2404.71 294.304C2400.36 304.8 2398.18 317.984 2398.18 333.856C2398.18 349.728 2400.36 362.912 2404.71 373.408C2409.06 383.904 2415.21 391.84 2423.14 397.216C2431.33 402.336 2440.81 404.896 2451.56 404.896ZM2589.65 493.6V231.712H2626.51L2627.28 278.176L2622.67 275.872C2627.79 260 2636.11 247.968 2647.63 239.776C2659.41 231.328 2673.23 227.104 2689.1 227.104C2708.82 227.104 2724.94 232.096 2737.49 242.08C2750.03 251.808 2759.38 264.736 2765.52 280.864C2771.66 296.992 2774.74 314.656 2774.74 333.856C2774.74 353.056 2771.66 370.72 2765.52 386.848C2759.38 402.976 2750.03 416.032 2737.49 426.016C2724.94 435.744 2708.82 440.608 2689.1 440.608C2678.61 440.608 2668.88 438.944 2659.92 435.616C2650.96 432.032 2643.28 427.04 2636.88 420.64C2630.74 413.984 2626.26 406.048 2623.44 396.832L2628.43 391.456V493.6H2589.65ZM2681.81 404.896C2698.19 404.896 2710.99 398.752 2720.21 386.464C2729.42 374.176 2734.03 356.64 2734.03 333.856C2734.03 311.072 2729.42 293.536 2720.21 281.248C2710.99 268.96 2698.19 262.816 2681.81 262.816C2671.06 262.816 2661.71 265.504 2653.78 270.88C2645.84 276 2639.57 283.808 2634.96 294.304C2630.61 304.8 2628.43 317.984 2628.43 333.856C2628.43 349.728 2630.61 362.912 2634.96 373.408C2639.31 383.904 2645.46 391.84 2653.39 397.216C2661.58 402.336 2671.06 404.896 2681.81 404.896Z" fill="#F65E00"/>
</svg>
